<svg xmlns="http://www.w3.org/2000/svg" width="24" height="22" viewBox="0 0 24 22">
    <g id="패스_5788" data-name="패스 5788" transform="translate(0 0)" fill="none">
      <path d="M12,22C5.548,17.607,2.164,13.611.776,10.267-2.942,1.3,7.677-2.983,12,2.308c4.323-5.291,14.942-1,11.224,7.958C21.836,13.611,18.452,17.607,12,22Z" stroke="none"/>
      <path d="M 12.00000953674316 19.56188201904297 C 18.07640647888184 15.21877670288086 20.45636367797852 11.71840381622314 21.37676429748535 9.500325202941895 C 22.24335289001465 7.411175727844238 22.20562362670898 5.564515590667725 21.26765441894531 4.159965515136719 C 20.37791442871094 2.827655553817749 18.74909400939941 2.000005483627319 17.01681327819824 2.000005483627319 C 16.2017936706543 2.000005483627319 14.66748428344727 2.204455614089966 13.5488338470459 3.573715686798096 L 11.9999942779541 5.469545364379883 L 10.45116424560547 3.573715686798096 C 9.332523345947266 2.204455614089966 7.798213958740234 2.000005483627319 6.983193874359131 2.000005483627319 C 5.251143932342529 2.000005483627319 3.622403860092163 2.827725648880005 2.732603788375854 4.16014575958252 C 1.794553756713867 5.56479549407959 1.756743788719177 7.41139554977417 2.623153924942017 9.500095367431641 C 3.543638229370117 11.71840000152588 5.923619747161865 15.21879291534424 12.00000953674316 19.56188201904297 M 12.00000381469727 22.0000057220459 C 5.54767370223999 17.60732650756836 2.163693904876709 13.61116600036621 0.7758738398551941 10.26662540435791 C -2.942026138305664 1.303695559501648 7.677412986755371 -2.982644557952881 12.00000381469727 2.3083655834198 C 16.32259178161621 -2.982645273208618 26.94203186035156 1.303695917129517 23.22413444519043 10.26662540435791 C 21.83631324768066 13.61116600036621 18.45232391357422 17.60732650756836 12.00000381469727 22.0000057220459 Z" stroke="none" fill="#121619"/>
    </g>
</svg>
  