<svg xmlns="http://www.w3.org/2000/svg" xmlns:xlink="http://www.w3.org/1999/xlink" width="48" height="48" viewBox="0 0 48 48">
    <defs>
      <radialGradient id="radial-gradient" cx="0.5" cy="0.5" r="0.5" gradientUnits="objectBoundingBox">
        <stop offset="0" stop-color="#fff"/>
        <stop offset="0.393" stop-color="#fff"/>
        <stop offset="1" stop-color="#b8b8b8"/>
      </radialGradient>
      <filter id="타원_222" x="9.5" y="15.5" width="22" height="22" filterUnits="userSpaceOnUse">
        <feOffset dy="2" input="SourceAlpha"/>
        <feGaussianBlur stdDeviation="1.5" result="blur"/>
        <feFlood flood-opacity="0.361"/>
        <feComposite operator="in" in2="blur"/>
        <feComposite in="SourceGraphic"/>
      </filter>
      <clipPath id="clip-path">
        <g transform="matrix(1, 0, 0, 1, 0, 0)" filter="url(#타원_222)">
          <circle id="타원_222-2" data-name="타원 222" cx="6.5" cy="6.5" r="6.5" transform="translate(156 365)" fill="url(#radial-gradient)"/>
        </g>
      </clipPath>
      <clipPath id="clip-path-2">
        <circle id="타원_221" data-name="타원 221" cx="6.5" cy="6.5" r="6.5" transform="translate(157.043 372.2)" fill="url(#radial-gradient)"/>
      </clipPath>
    </defs>
    <g id="no_play" transform="translate(-54 -1386)">
      <rect id="사각형_3373" data-name="사각형 3373" width="48" height="48" transform="translate(54 1386)" fill="none"/>
      <path id="다각형_1" data-name="다각형 1" d="M21.542,3.511a3,3,0,0,1,4.915,0L44.7,29.565a3,3,0,0,1-2.458,4.72H5.762A3,3,0,0,1,3.3,29.565Z" transform="translate(97.254 1386) rotate(90)" fill="#949494"/>
      <g id="타원_205" data-name="타원 205" transform="translate(68 1404)" fill="#f2f2f2" stroke="#f2f2f2" stroke-width="1">
        <circle cx="6.5" cy="6.5" r="6.5" stroke="none"/>
        <circle cx="6.5" cy="6.5" r="6" fill="none"/>
      </g>
      <path id="합치기_16" data-name="합치기 16" d="M3775,38.5V33.428l-2.274-2.6A.5.5,0,0,1,3773.1,30h4.8a.5.5,0,0,1,.376.829l-2.275,2.6V38.5a.5.5,0,1,1-1,0Z" transform="translate(-3700.814 1388)" fill="#f2f2f2"/>
      <g id="마스크_그룹_22" data-name="마스크 그룹 22" transform="translate(-88 1039)" clip-path="url(#clip-path)">
        <g id="마스크_그룹_21" data-name="마스크 그룹 21" transform="translate(-22.478 740.204) rotate(-130)" clip-path="url(#clip-path-2)">
          <g id="그룹_3914" data-name="그룹 3914" transform="translate(0 -0.464)">
            <circle id="타원_207" data-name="타원 207" cx="1" cy="1" r="1" transform="translate(157.5 380)" fill="#d9d9d9"/>
            <circle id="타원_208" data-name="타원 208" cx="1" cy="1" r="1" transform="translate(161 380)" fill="#d9d9d9"/>
            <circle id="타원_209" data-name="타원 209" cx="1" cy="1" r="1" transform="translate(164.5 380)" fill="#d9d9d9"/>
            <circle id="타원_210" data-name="타원 210" cx="1" cy="1" r="1" transform="translate(163 377)" fill="#d9d9d9"/>
            <circle id="타원_211" data-name="타원 211" cx="1" cy="1" r="1" transform="translate(159.5 377)" fill="#d9d9d9"/>
            <circle id="타원_212" data-name="타원 212" cx="1" cy="1" r="1" transform="translate(166.5 377)" fill="#d9d9d9"/>
            <circle id="타원_213" data-name="타원 213" cx="1" cy="1" r="1" transform="translate(156 377)" fill="#d9d9d9"/>
            <circle id="타원_216" data-name="타원 216" cx="1" cy="1" r="1" transform="translate(168 380)" fill="#bcbcbc"/>
            <circle id="타원_218" data-name="타원 218" cx="1" cy="1" r="1" transform="translate(159.5 383)" fill="#bcbcbc"/>
            <circle id="타원_219" data-name="타원 219" cx="1" cy="1" r="1" transform="translate(163 383)" fill="#bcbcbc"/>
            <circle id="타원_220" data-name="타원 220" cx="1" cy="1" r="1" transform="translate(166.5 383)" fill="#bcbcbc"/>
          </g>
        </g>
      </g>
    </g>
</svg>
  