<svg xmlns="http://www.w3.org/2000/svg" width="30" height="30" viewBox="0 0 30 30">
  <g id="그룹_3940" data-name="그룹 3940" transform="translate(27 -871)">
    <g id="속도" transform="translate(-185 -96)">
      <rect id="사각형_3282" data-name="사각형 3282" width="30" height="30" rx="15" transform="translate(158 967)" fill="#1e1f23" opacity="0.8" style="mix-blend-mode: darken;isolation: isolate"/>
    </g>
    <g id="speaker" transform="translate(-18 880)">
      <rect id="사각형_3276" data-name="사각형 3276" width="12" height="12" fill="none" opacity="0.4"/>
      <rect id="사각형_3277" data-name="사각형 3277" width="4" height="6" rx="0.5" transform="translate(0 3)" fill="#fff"/>
      <path id="패스_5757" data-name="패스 5757" d="M-1,3,2.5,0A.5.5,0,0,1,3,.5v11a.5.5,0,0,1-.5.5L-1,9Z" transform="translate(3)" fill="#fff"/>
      <path id="패스_5759" data-name="패스 5759" d="M2.5,0a2,2,0,0,1,0,4" transform="translate(5 4.5)" fill="none" stroke="#fff" stroke-linecap="round" stroke-width="1"/>
      <path id="패스_5758" data-name="패스 5758" d="M3.5,0a4,4,0,0,1,0,8" transform="translate(4 2.5)" fill="none" stroke="#fff" stroke-linecap="round" stroke-width="1"/>
    </g>
  </g>
</svg>
