<svg xmlns="http://www.w3.org/2000/svg" xmlns:xlink="http://www.w3.org/1999/xlink" width="32" height="32" viewBox="0 0 32 32">
  <defs>
    <clipPath id="clip-path">
      <rect id="사각형_3384" data-name="사각형 3384" width="24" height="20" fill="none"/>
    </clipPath>
  </defs>
  <g id="icon_store" transform="translate(-247 -293)">
    <rect id="사각형_1655" data-name="사각형 1655" width="32" height="32" transform="translate(247 293)" fill="none"/>
    <g id="그룹_3868" data-name="그룹 3868" transform="translate(251 299)">
      <g id="그룹_3869" data-name="그룹 3869" clip-path="url(#clip-path)">
        <path id="사각형_3385" data-name="사각형 3385" d="M0,0H16a0,0,0,0,1,0,0V19a1,1,0,0,1-1,1H1a1,1,0,0,1-1-1V0A0,0,0,0,1,0,0Z" transform="translate(4)" fill="#ccc"/>
        <path id="패스_5795" data-name="패스 5795" d="M17.646,7.785,15.773.75M6.382,7.785,8.256.75m3.758,7.035V.75M23.278,7.785a2.816,2.816,0,1,1-5.632,0,2.816,2.816,0,1,1-5.632,0,2.816,2.816,0,1,1-5.632,0,2.816,2.816,0,1,1-5.632,0L4.371.75H19.78Z" transform="translate(-0.242 -0.242)" fill="#ccc" stroke="#fff" stroke-linejoin="round" stroke-width="1.5"/>
        <path id="사각형_3386" data-name="사각형 3386" d="M1,0H3A1,1,0,0,1,4,1V6A0,0,0,0,1,4,6H0A0,0,0,0,1,0,6V1A1,1,0,0,1,1,0Z" transform="translate(10 14)" fill="#fff"/>
      </g>
    </g>
  </g>
</svg>
