<svg id="share" xmlns="http://www.w3.org/2000/svg" width="24" height="24" viewBox="0 0 24 24">
  <rect id="사각형_3376" data-name="사각형 3376" width="18" height="18" transform="translate(0 6)" fill="none"/>
  <path id="share-2" data-name="share" d="M22.167,10.667a3.83,3.83,0,1,0-3.8-3.36L9.494,11.741a3.833,3.833,0,1,0,0,5.518l8.868,4.434a3.834,3.834,0,1,0,3.8-3.36,3.821,3.821,0,0,0-2.661,1.074l-8.868-4.434a3.885,3.885,0,0,0,0-.947l8.868-4.434A3.821,3.821,0,0,0,22.167,10.667Z" transform="translate(-2 -3)" fill="#121619"/>
</svg>
