<svg xmlns="http://www.w3.org/2000/svg" width="18" height="18" viewBox="0 0 18 18">
    <path id="search_FILL0_wght400_GRAD0_opsz24" d="M126.657-826.686a6.426,6.426,0,0,1-4.724-1.933A6.426,6.426,0,0,1,120-833.343a6.426,6.426,0,0,1,1.933-4.724A6.426,6.426,0,0,1,126.657-840a6.426,6.426,0,0,1,4.724,1.933,6.426,6.426,0,0,1,1.933,4.724,6.242,6.242,0,0,1-.358,2.125,6.1,6.1,0,0,1-.973,1.767l5.735,5.735A.971.971,0,0,1,138-823a.971.971,0,0,1-.282.717A.971.971,0,0,1,137-822a.971.971,0,0,1-.717-.282l-5.735-5.735a6.1,6.1,0,0,1-1.767.973A6.242,6.242,0,0,1,126.657-826.686Zm0-2.048a4.445,4.445,0,0,0,3.265-1.344,4.445,4.445,0,0,0,1.344-3.265,4.445,4.445,0,0,0-1.344-3.265,4.445,4.445,0,0,0-3.265-1.344,4.445,4.445,0,0,0-3.265,1.344,4.445,4.445,0,0,0-1.344,3.265,4.445,4.445,0,0,0,1.344,3.265A4.444,4.444,0,0,0,126.657-828.734Z" transform="translate(-120 840)" fill="#999"/>
</svg>
  