<svg xmlns="http://www.w3.org/2000/svg" xmlns:xlink="http://www.w3.org/1999/xlink" width="208" height="39" viewBox="0 0 208 39">
  <defs>
    <clipPath id="clip-path">
      <rect id="사각형_3611" data-name="사각형 3611" width="208" height="39" fill="none"/>
    </clipPath>
  </defs>
  <g id="더스윙Z제트_w" transform="translate(3.767 0.493)">
    <g id="그룹_4093" data-name="그룹 4093" transform="translate(-3.767 -0.493)">
      <g id="그룹_4092" data-name="그룹 4092" transform="translate(0)" clip-path="url(#clip-path)">
        <path id="패스_6272" data-name="패스 6272" d="M101.372,7.054,95.943.4a.248.248,0,0,1,.193-.4h45.41a.481.481,0,0,1,.471.574L141.7,2.218a.959.959,0,0,1-.2.423L115.45,34.583a.241.241,0,0,0,.187.393H133.1a.983.983,0,0,0,.759-.358l2.516-3.038a.246.246,0,0,1,.381,0l5.383,6.594a.246.246,0,0,1-.191.4H96.519A.48.48,0,0,1,96.048,38l.319-1.6a.958.958,0,0,1,.2-.419L122.747,3.993a.241.241,0,0,0-.187-.392H105.215a.991.991,0,0,0-.762.357l-2.7,3.1a.248.248,0,0,1-.382,0M20.917,25.824,7.2,26.73V11.316h10.63V5.143H0V33.2l20.917-1.292Zm-7.029-4.907H21.6V34.29h7.2v-30H21.6V14.745H13.887ZM30.861,33.775H60.693v-6H30.861Zm.857-11.826c6.779-.161,11.363-3.067,14.043-6.715,2.679,3.648,7.263,6.553,14.075,6.715V16.211c-6.8-.517-10.458-5.36-10.458-8.977V4.458h-7.2V7.235c0,3.617-3.659,8.46-10.458,8.977Zm30-.346h6.684l-.548,2.159a5.355,5.355,0,0,0-4.415,5.317,5.291,5.291,0,0,0,5.189,5.382H86.263a5.4,5.4,0,0,0,0-10.8H74.421l.506-2.057h8.053V16.63H61.721Zm.716-11.439A5.418,5.418,0,0,0,67.811,15.6h8.334a5.487,5.487,0,0,0,0-10.973H67.811a5.44,5.44,0,0,0-5.374,5.535m6.068-.118a1.034,1.034,0,0,1,.937-1.131h5.233a1.034,1.034,0,0,1,.937,1.131,1,1,0,0,1-.937,1.1H69.443a1,1,0,0,1-.937-1.1m1.519,18.843a.711.711,0,0,1,.707-.772H84.106a.774.774,0,0,1,0,1.543H70.732a.711.711,0,0,1-.707-.772m13.813-5.915H91.21V4.286H83.838Zm62.75-12.344h4.286v1.711c0,7.911-1,11.915-4.629,14.337v6.608a14.18,14.18,0,0,0,7.528-6.978,14.242,14.242,0,0,0,7.56,6.978V26.678c-3.626-2.422-4.629-6.426-4.629-14.337V10.63h4.286V5.143h-14.4Zm11.83,10.287h4.458V34.29h5.658v-30h-5.658V15.43h-4.458ZM169.9,34.29h5.829v-30H169.9Zm7.887-.514h29.832V28.117H177.792Zm1.2-23.831h27.775V4.8H178.992Zm27.775,8.23H186.192V16.288h20.574V11.316H178.992V23.66h27.775Z" fill="#fff"/>
      </g>
    </g>
  </g>
</svg>
