<svg xmlns="http://www.w3.org/2000/svg" width="2" height="471" viewBox="0 0 2 471">
    <g id="oooooo" transform="translate(-120 -1000)">
      <g id="oooo" transform="translate(-65 51)">
        <circle id="타원_239" data-name="타원 239" cx="1" cy="1" r="1" transform="translate(185 1344)" fill="#fff"/>
        <circle id="타원_240" data-name="타원 240" cx="1" cy="1" r="1" transform="translate(185 1349)" fill="#fff"/>
        <circle id="타원_241" data-name="타원 241" cx="1" cy="1" r="1" transform="translate(185 1354)" fill="#fff"/>
        <circle id="타원_243" data-name="타원 243" cx="1" cy="1" r="1" transform="translate(185 1359)" fill="#fff"/>
        <circle id="타원_244" data-name="타원 244" cx="1" cy="1" r="1" transform="translate(185 1364)" fill="#fff"/>
        <circle id="타원_245" data-name="타원 245" cx="1" cy="1" r="1" transform="translate(185 1369)" fill="#fff"/>
        <circle id="타원_246" data-name="타원 246" cx="1" cy="1" r="1" transform="translate(185 1374)" fill="#fff"/>
      </g>
      <g id="oooo-2" data-name="oooo" transform="translate(-65 7)">
        <circle id="타원_239-2" data-name="타원 239" cx="1" cy="1" r="1" transform="translate(185 1344)" fill="#fff"/>
        <circle id="타원_240-2" data-name="타원 240" cx="1" cy="1" r="1" transform="translate(185 1349)" fill="#fff"/>
        <circle id="타원_241-2" data-name="타원 241" cx="1" cy="1" r="1" transform="translate(185 1354)" fill="#fff"/>
        <circle id="타원_243-2" data-name="타원 243" cx="1" cy="1" r="1" transform="translate(185 1359)" fill="#fff"/>
        <circle id="타원_244-2" data-name="타원 244" cx="1" cy="1" r="1" transform="translate(185 1364)" fill="#fff"/>
        <circle id="타원_245-2" data-name="타원 245" cx="1" cy="1" r="1" transform="translate(185 1369)" fill="#fff"/>
        <circle id="타원_246-2" data-name="타원 246" cx="1" cy="1" r="1" transform="translate(185 1374)" fill="#fff"/>
      </g>
      <g id="oooo-3" data-name="oooo" transform="translate(-65 -36)">
        <circle id="타원_239-3" data-name="타원 239" cx="1" cy="1" r="1" transform="translate(185 1344)" fill="#fff"/>
        <circle id="타원_240-3" data-name="타원 240" cx="1" cy="1" r="1" transform="translate(185 1349)" fill="#fff"/>
        <circle id="타원_241-3" data-name="타원 241" cx="1" cy="1" r="1" transform="translate(185 1354)" fill="#fff"/>
        <circle id="타원_243-3" data-name="타원 243" cx="1" cy="1" r="1" transform="translate(185 1359)" fill="#fff"/>
        <circle id="타원_244-3" data-name="타원 244" cx="1" cy="1" r="1" transform="translate(185 1364)" fill="#fff"/>
        <circle id="타원_245-3" data-name="타원 245" cx="1" cy="1" r="1" transform="translate(185 1369)" fill="#fff"/>
        <circle id="타원_246-3" data-name="타원 246" cx="1" cy="1" r="1" transform="translate(185 1374)" fill="#fff"/>
      </g>
      <g id="oooo-4" data-name="oooo" transform="translate(-65 -80)">
        <circle id="타원_239-4" data-name="타원 239" cx="1" cy="1" r="1" transform="translate(185 1344)" fill="#fff"/>
        <circle id="타원_240-4" data-name="타원 240" cx="1" cy="1" r="1" transform="translate(185 1349)" fill="#fff"/>
        <circle id="타원_241-4" data-name="타원 241" cx="1" cy="1" r="1" transform="translate(185 1354)" fill="#fff"/>
        <circle id="타원_243-4" data-name="타원 243" cx="1" cy="1" r="1" transform="translate(185 1359)" fill="#fff"/>
        <circle id="타원_244-4" data-name="타원 244" cx="1" cy="1" r="1" transform="translate(185 1364)" fill="#fff"/>
        <circle id="타원_245-4" data-name="타원 245" cx="1" cy="1" r="1" transform="translate(185 1369)" fill="#fff"/>
        <circle id="타원_246-4" data-name="타원 246" cx="1" cy="1" r="1" transform="translate(185 1374)" fill="#fff"/>
      </g>
      <g id="oooo-5" data-name="oooo" transform="translate(-65 -124)">
        <circle id="타원_239-5" data-name="타원 239" cx="1" cy="1" r="1" transform="translate(185 1344)" fill="#fff"/>
        <circle id="타원_240-5" data-name="타원 240" cx="1" cy="1" r="1" transform="translate(185 1349)" fill="#fff"/>
        <circle id="타원_241-5" data-name="타원 241" cx="1" cy="1" r="1" transform="translate(185 1354)" fill="#fff"/>
        <circle id="타원_243-5" data-name="타원 243" cx="1" cy="1" r="1" transform="translate(185 1359)" fill="#fff"/>
        <circle id="타원_244-5" data-name="타원 244" cx="1" cy="1" r="1" transform="translate(185 1364)" fill="#fff"/>
        <circle id="타원_245-5" data-name="타원 245" cx="1" cy="1" r="1" transform="translate(185 1369)" fill="#fff"/>
        <circle id="타원_246-5" data-name="타원 246" cx="1" cy="1" r="1" transform="translate(185 1374)" fill="#fff"/>
      </g>
      <g id="oooo-6" data-name="oooo" transform="translate(-65 -168)">
        <circle id="타원_239-6" data-name="타원 239" cx="1" cy="1" r="1" transform="translate(185 1344)" fill="#fff"/>
        <circle id="타원_240-6" data-name="타원 240" cx="1" cy="1" r="1" transform="translate(185 1349)" fill="#fff"/>
        <circle id="타원_241-6" data-name="타원 241" cx="1" cy="1" r="1" transform="translate(185 1354)" fill="#fff"/>
        <circle id="타원_243-6" data-name="타원 243" cx="1" cy="1" r="1" transform="translate(185 1359)" fill="#fff"/>
        <circle id="타원_244-6" data-name="타원 244" cx="1" cy="1" r="1" transform="translate(185 1364)" fill="#fff"/>
        <circle id="타원_245-6" data-name="타원 245" cx="1" cy="1" r="1" transform="translate(185 1369)" fill="#fff"/>
        <circle id="타원_246-6" data-name="타원 246" cx="1" cy="1" r="1" transform="translate(185 1374)" fill="#fff"/>
      </g>
      <g id="oooo-7" data-name="oooo" transform="translate(-65 -212)">
        <circle id="타원_239-7" data-name="타원 239" cx="1" cy="1" r="1" transform="translate(185 1344)" fill="#fff"/>
        <circle id="타원_240-7" data-name="타원 240" cx="1" cy="1" r="1" transform="translate(185 1349)" fill="#fff"/>
        <circle id="타원_241-7" data-name="타원 241" cx="1" cy="1" r="1" transform="translate(185 1354)" fill="#fff"/>
        <circle id="타원_243-7" data-name="타원 243" cx="1" cy="1" r="1" transform="translate(185 1359)" fill="#fff"/>
        <circle id="타원_244-7" data-name="타원 244" cx="1" cy="1" r="1" transform="translate(185 1364)" fill="#fff"/>
        <circle id="타원_245-7" data-name="타원 245" cx="1" cy="1" r="1" transform="translate(185 1369)" fill="#fff"/>
        <circle id="타원_246-7" data-name="타원 246" cx="1" cy="1" r="1" transform="translate(185 1374)" fill="#fff"/>
      </g>
      <g id="oooo-8" data-name="oooo" transform="translate(-65 -256)">
        <circle id="타원_239-8" data-name="타원 239" cx="1" cy="1" r="1" transform="translate(185 1344)" fill="#fff"/>
        <circle id="타원_240-8" data-name="타원 240" cx="1" cy="1" r="1" transform="translate(185 1349)" fill="#fff"/>
        <circle id="타원_241-8" data-name="타원 241" cx="1" cy="1" r="1" transform="translate(185 1354)" fill="#fff"/>
        <circle id="타원_243-8" data-name="타원 243" cx="1" cy="1" r="1" transform="translate(185 1359)" fill="#fff"/>
        <circle id="타원_244-8" data-name="타원 244" cx="1" cy="1" r="1" transform="translate(185 1364)" fill="#fff"/>
        <circle id="타원_245-8" data-name="타원 245" cx="1" cy="1" r="1" transform="translate(185 1369)" fill="#fff"/>
        <circle id="타원_246-8" data-name="타원 246" cx="1" cy="1" r="1" transform="translate(185 1374)" fill="#fff"/>
      </g>
      <g id="oooo-9" data-name="oooo" transform="translate(-65 -300)">
        <circle id="타원_239-9" data-name="타원 239" cx="1" cy="1" r="1" transform="translate(185 1344)" fill="#fff"/>
        <circle id="타원_240-9" data-name="타원 240" cx="1" cy="1" r="1" transform="translate(185 1349)" fill="#fff"/>
        <circle id="타원_241-9" data-name="타원 241" cx="1" cy="1" r="1" transform="translate(185 1354)" fill="#fff"/>
        <circle id="타원_243-9" data-name="타원 243" cx="1" cy="1" r="1" transform="translate(185 1359)" fill="#fff"/>
        <circle id="타원_244-9" data-name="타원 244" cx="1" cy="1" r="1" transform="translate(185 1364)" fill="#fff"/>
        <circle id="타원_245-9" data-name="타원 245" cx="1" cy="1" r="1" transform="translate(185 1369)" fill="#fff"/>
        <circle id="타원_246-9" data-name="타원 246" cx="1" cy="1" r="1" transform="translate(185 1374)" fill="#fff"/>
      </g>
      <g id="oooo-10" data-name="oooo" transform="translate(-65 -344)">
        <circle id="타원_239-10" data-name="타원 239" cx="1" cy="1" r="1" transform="translate(185 1344)" fill="#fff"/>
        <circle id="타원_240-10" data-name="타원 240" cx="1" cy="1" r="1" transform="translate(185 1349)" fill="#fff"/>
        <circle id="타원_241-10" data-name="타원 241" cx="1" cy="1" r="1" transform="translate(185 1354)" fill="#fff"/>
        <circle id="타원_243-10" data-name="타원 243" cx="1" cy="1" r="1" transform="translate(185 1359)" fill="#fff"/>
        <circle id="타원_244-10" data-name="타원 244" cx="1" cy="1" r="1" transform="translate(185 1364)" fill="#fff"/>
        <circle id="타원_245-10" data-name="타원 245" cx="1" cy="1" r="1" transform="translate(185 1369)" fill="#fff"/>
        <circle id="타원_246-10" data-name="타원 246" cx="1" cy="1" r="1" transform="translate(185 1374)" fill="#fff"/>
      </g>
      <g id="oooo-11" data-name="oooo" transform="translate(-65 95)">
        <circle id="타원_239-11" data-name="타원 239" cx="1" cy="1" r="1" transform="translate(185 1344)" fill="#fff"/>
        <circle id="타원_240-11" data-name="타원 240" cx="1" cy="1" r="1" transform="translate(185 1349)" fill="#fff"/>
        <circle id="타원_241-11" data-name="타원 241" cx="1" cy="1" r="1" transform="translate(185 1354)" fill="#fff"/>
        <circle id="타원_243-11" data-name="타원 243" cx="1" cy="1" r="1" transform="translate(185 1359)" fill="#fff"/>
        <circle id="타원_244-11" data-name="타원 244" cx="1" cy="1" r="1" transform="translate(185 1364)" fill="#fff"/>
        <circle id="타원_245-11" data-name="타원 245" cx="1" cy="1" r="1" transform="translate(185 1369)" fill="#fff"/>
        <circle id="타원_246-11" data-name="타원 246" cx="1" cy="1" r="1" transform="translate(185 1374)" fill="#fff"/>
      </g>
    </g>
</svg>
  