<svg xmlns="http://www.w3.org/2000/svg" xmlns:xlink="http://www.w3.org/1999/xlink" width="100" height="26" viewBox="0 0 100 26">
  <defs>
    <clipPath id="clip-path">
      <rect id="사각형_3402" data-name="사각형 3402" width="100" height="26" transform="translate(-1)" fill="none"/>
    </clipPath>
    <clipPath id="clip-path-2">
      <rect id="사각형_3401" data-name="사각형 3401" width="100" height="18" transform="translate(-1.744 -0.796)" fill="none"/>
    </clipPath>
    <clipPath id="clip-path-3">
      <rect id="사각형_3400" data-name="사각형 3400" width="100" height="18" transform="translate(-1 -0.796)" fill="none"/>
    </clipPath>
    <clipPath id="clip-path-4">
      <rect id="사각형_3615" data-name="사각형 3615" width="100" height="18" transform="translate(0 0)" fill="none"/>
    </clipPath>
  </defs>
  <g id="그룹_3930" data-name="그룹 3930" transform="translate(1)" clip-path="url(#clip-path)">
    <g id="그룹_3929" data-name="그룹 3929" transform="translate(0.744 4.796)">
      <g id="그룹_3928" data-name="그룹 3928" clip-path="url(#clip-path-2)">
        <g id="그룹_3927" data-name="그룹 3927" transform="translate(-0.744 0)">
          <g id="그룹_3926" data-name="그룹 3926" clip-path="url(#clip-path-3)">
            <g id="그룹_4098" data-name="그룹 4098" transform="translate(-0.613 -1.137)">
              <g id="그룹_4097" data-name="그룹 4097" transform="translate(-0.386 0.341)" clip-path="url(#clip-path-4)">
                <path id="패스_6277" data-name="패스 6277" d="M48.616,3.383,46.012.194A.119.119,0,0,1,46.1,0H67.882a.23.23,0,0,1,.226.275l-.154.789a.46.46,0,0,1-.1.2L55.367,16.585a.115.115,0,0,0,.09.188h8.375A.472.472,0,0,0,64.2,16.6L65.4,15.145a.118.118,0,0,1,.183,0l2.582,3.162a.118.118,0,0,1-.092.192H46.288a.23.23,0,0,1-.226-.276l.153-.765a.459.459,0,0,1,.095-.2L58.867,1.915a.115.115,0,0,0-.09-.188H50.459a.475.475,0,0,0-.365.171L48.8,3.384a.119.119,0,0,1-.183,0m-38.585,9-6.578.434V5.427h5.1V2.467H0V15.924L10.031,15.3ZM6.66,10.031h3.7v6.413h3.453V2.056H10.36V7.071H6.66ZM14.8,16.2H29.107V13.32H14.8Zm.411-5.672a8.245,8.245,0,0,0,6.735-3.22,8.254,8.254,0,0,0,6.75,3.22V7.775C25.435,7.527,23.68,5.2,23.68,3.47V2.138H20.227V3.47c0,1.734-1.755,4.057-5.016,4.305ZM29.6,10.36h3.206L32.543,11.4a2.568,2.568,0,0,0-2.117,2.55,2.537,2.537,0,0,0,2.488,2.581H41.37a2.592,2.592,0,0,0,0-5.18H35.691l.243-.987H39.8V7.976H29.6Zm.344-5.486a2.6,2.6,0,0,0,2.577,2.608h4a2.631,2.631,0,0,0,0-5.262h-4a2.609,2.609,0,0,0-2.577,2.654m2.91-.057a.5.5,0,0,1,.449-.542h2.51a.5.5,0,0,1,.449.542.481.481,0,0,1-.449.527H33.3a.481.481,0,0,1-.449-.527m.729,9.037a.341.341,0,0,1,.339-.37h6.414a.371.371,0,0,1,0,.74H33.922a.341.341,0,0,1-.339-.37m6.624-2.837h3.536V2.056H40.207ZM70.3,5.1h2.056v.821c0,3.794-.481,5.714-2.22,6.876v3.169a6.8,6.8,0,0,0,3.61-3.347,6.83,6.83,0,0,0,3.626,3.347V12.794c-1.739-1.161-2.22-3.082-2.22-6.876V5.1h2.056V2.467H70.3Zm5.673,4.933h2.138v6.413h2.713V2.056H78.112V7.4H75.974Zm5.509,6.413h2.8V2.056h-2.8Zm3.782-.247H99.572V13.485H85.265ZM85.84,4.769h13.32V2.3H85.84Zm13.32,3.947H89.294v-.9h9.867V5.427H85.84v5.92h13.32Z" transform="translate(0.278 -0.246)" fill="#fff"/>
              </g>
            </g>
          </g>
        </g>
      </g>
    </g>
  </g>
</svg>
