<svg xmlns="http://www.w3.org/2000/svg" xmlns:xlink="http://www.w3.org/1999/xlink" width="237" height="44" viewBox="0 0 237 44">
  <defs>
    <clipPath id="clip-path">
      <rect id="사각형_3612" data-name="사각형 3612" width="237" height="44" transform="translate(0 0)" fill="none"/>
    </clipPath>
  </defs>
  <g id="그룹_4094" data-name="그룹 4094" transform="translate(0 0)" clip-path="url(#clip-path)">
    <path id="패스_6273" data-name="패스 6273" d="M116.3,8.094,110.076.464A.285.285,0,0,1,110.3,0h52.1a.551.551,0,0,1,.541.658l-.369,1.886a1.1,1.1,0,0,1-.229.485L132.456,39.677a.276.276,0,0,0,.215.45h20.037a1.128,1.128,0,0,0,.87-.41l2.886-3.486a.283.283,0,0,1,.437,0l6.176,7.565a.282.282,0,0,1-.219.46H110.737a.551.551,0,0,1-.541-.66l.366-1.83a1.1,1.1,0,0,1,.227-.481l30.04-36.707a.276.276,0,0,0-.214-.45h-19.9a1.137,1.137,0,0,0-.874.409l-3.1,3.556a.284.284,0,0,1-.439,0M24,29.628,8.262,30.667V12.982h12.2V5.9H0V38.094l24-1.482ZM15.933,24h8.852V39.341h8.262V4.918H24.785v12H15.933ZM35.407,38.75H69.633V31.866H35.407Zm.984-13.568c7.778-.185,13.037-3.518,16.111-7.7,3.074,4.185,8.333,7.519,16.148,7.7V18.6c-7.8-.593-12-6.15-12-10.3V5.114H48.389V8.3c0,4.149-4.2,9.706-12,10.3Zm34.423-.4h7.669l-.629,2.477a6.143,6.143,0,0,0-5.065,6.1,6.07,6.07,0,0,0,5.953,6.175H98.969a6.2,6.2,0,0,0,0-12.392H85.384l.581-2.36H95.2v-5.7H70.813Zm.822-13.124A6.216,6.216,0,0,0,77.8,17.9h9.562a6.3,6.3,0,0,0,0-12.589H77.8a6.241,6.241,0,0,0-6.165,6.35m6.962-.135a1.187,1.187,0,0,1,1.075-1.3h6a1.187,1.187,0,0,1,1.075,1.3,1.151,1.151,0,0,1-1.075,1.26h-6a1.151,1.151,0,0,1-1.075-1.26M80.34,33.144a.816.816,0,0,1,.812-.885H96.5a.889.889,0,0,1,0,1.77H81.152a.816.816,0,0,1-.812-.885m15.848-6.786h8.458V4.918H96.188ZM168.181,12.2H173.1v1.963c0,9.076-1.151,13.67-5.311,16.449v7.581a16.268,16.268,0,0,0,8.636-8.006,16.34,16.34,0,0,0,8.673,8.006V30.608c-4.16-2.779-5.311-7.372-5.311-16.449V12.2H184.7V5.9H168.181ZM181.753,24h5.114V39.341h6.491V4.918h-6.491V17.7h-5.114Zm13.179,15.343h6.688V4.918h-6.688Zm9.048-.59h34.226V32.259H203.981Zm1.377-27.342h31.866v-5.9H205.358Zm31.866,9.442h-23.6V18.687h23.6v-5.7H205.358V27.145h31.866Z" transform="translate(-0.414 0.021)" fill="#ed7520"/>
  </g>
</svg>
