<svg id="img_logo" xmlns="http://www.w3.org/2000/svg" xmlns:xlink="http://www.w3.org/1999/xlink" width="240" height="45" viewBox="0 0 240 45">
  <defs>
    <clipPath id="clip-path">
      <rect id="사각형_3612" data-name="사각형 3612" width="240" height="45" fill="none"/>
    </clipPath>
  </defs>
  <g id="그룹_4094" data-name="그룹 4094" clip-path="url(#clip-path)">
    <path id="패스_6273" data-name="패스 6273" d="M117.18,8.154,110.9.468A.287.287,0,0,1,111.127,0h52.491a.555.555,0,0,1,.545.663l-.372,1.9a1.109,1.109,0,0,1-.23.489L133.453,39.976a.278.278,0,0,0,.216.454h20.187a1.137,1.137,0,0,0,.877-.413l2.908-3.512a.285.285,0,0,1,.44,0l6.223,7.622a.284.284,0,0,1-.221.464H111.57a.555.555,0,0,1-.545-.665l.368-1.844a1.107,1.107,0,0,1,.229-.484L141.888,4.615a.278.278,0,0,0-.216-.454h-20.05a1.146,1.146,0,0,0-.881.412l-3.119,3.583a.286.286,0,0,1-.442,0m-93,21.7L8.324,30.9V13.08H20.611V5.945H0V38.381l24.178-1.493Zm-8.126-5.672h8.918V39.637h8.324V4.955H24.971V17.044H16.053Zm19.62,14.864H70.157V32.106H35.673Zm.991-13.67C44.5,25.185,49.8,21.827,52.9,17.61c3.1,4.217,8.4,7.575,16.27,7.762V18.739c-7.86-.6-12.089-6.2-12.089-10.376V5.153H48.753v3.21c0,4.18-4.229,9.779-12.089,10.376Zm34.682-.4h7.727l-.633,2.5a6.19,6.19,0,0,0-5.1,6.147,6.116,6.116,0,0,0,6,6.221H99.714a6.247,6.247,0,0,0,0-12.486H86.026l.585-2.378h9.309V19.224H71.346Zm.828-13.222a6.263,6.263,0,0,0,6.211,6.286h9.634a6.343,6.343,0,0,0,0-12.684H78.386a6.288,6.288,0,0,0-6.211,6.4m7.014-.136a1.2,1.2,0,0,1,1.083-1.307H86.32A1.2,1.2,0,0,1,87.4,11.612a1.16,1.16,0,0,1-1.083,1.27H80.271a1.16,1.16,0,0,1-1.083-1.27m1.756,21.782a.822.822,0,0,1,.818-.892H97.221a.9.9,0,0,1,0,1.784H81.762a.822.822,0,0,1-.818-.892m15.967-6.837h8.522V4.955H96.912Zm72.535-14.269H174.4v1.978c0,9.145-1.16,13.773-5.351,16.572v7.638a16.391,16.391,0,0,0,8.7-8.067,16.463,16.463,0,0,0,8.739,8.067V30.838c-4.191-2.8-5.351-7.428-5.351-16.572V12.287h4.955V5.945H169.447Zm13.675,11.891h5.153V39.637h6.54V4.955h-6.54V17.836h-5.153ZM196.4,39.637h6.738V4.955H196.4Zm9.116-.595H240V32.5H205.516ZM206.9,11.495h32.106V5.549H206.9Zm32.106,9.513H215.227v-2.18h23.782V13.08H206.9V27.349h32.106Z" fill="#ed7520"/>
  </g>
</svg>
