<svg xmlns="http://www.w3.org/2000/svg" xmlns:xlink="http://www.w3.org/1999/xlink" width="84" height="19" viewBox="0 0 84 19">
    <defs>
      <clipPath id="clip-path">
        <rect id="사각형_3613" data-name="사각형 3613" width="84" height="19" transform="translate(0 0)" fill="none"/>
      </clipPath>
    </defs>
    <g id="logo" transform="translate(0.281 -0.058)">
      <g id="그룹_4095" data-name="그룹 4095" transform="translate(-0.28 0.058)" clip-path="url(#clip-path)">
        <path id="패스_6274" data-name="패스 6274" d="M562.026,3.533,559.307.2a.124.124,0,0,1,.1-.2h22.745a.241.241,0,0,1,.236.287l-.161.824a.481.481,0,0,1-.1.212l-13.046,16a.121.121,0,0,0,.094.2h8.747a.492.492,0,0,0,.38-.179l1.26-1.522a.123.123,0,0,1,.191,0l2.7,3.3a.123.123,0,0,1-.1.2H559.6a.24.24,0,0,1-.236-.288l.16-.8a.48.48,0,0,1,.1-.21L572.733,2a.121.121,0,0,0-.094-.2h-8.688a.5.5,0,0,0-.382.179l-1.352,1.552a.124.124,0,0,1-.191,0" transform="translate(-498.39 0.032)" fill="#fff"/>
        <path id="패스_6275" data-name="패스 6275" d="M13.394,38.791l-8.783.58V29.5h6.807V25.549H0V43.517l13.394-.827Zm-4.5-3.142h4.94v8.563h4.611V25H13.833v6.7H8.892Zm10.869,8.234h19.1V40.04h-19.1Zm.549-7.573a11.008,11.008,0,0,0,8.992-4.3,11.021,11.021,0,0,0,9.013,4.3V32.636c-4.354-.331-6.7-3.432-6.7-5.748V25.11H27.007v1.778c0,2.316-2.343,5.417-6.7,5.748Zm19.212-.222H43.8l-.351,1.383a3.429,3.429,0,0,0-2.827,3.4,3.388,3.388,0,0,0,3.322,3.446h11.29a3.461,3.461,0,0,0,0-6.916H47.654l.324-1.317h5.157V32.9H39.522Zm.459-7.325a3.469,3.469,0,0,0,3.441,3.482h5.337a3.513,3.513,0,0,0,0-7.026H43.422a3.483,3.483,0,0,0-3.441,3.544m3.886-.076a.662.662,0,0,1,.6-.724h3.351a.662.662,0,0,1,.6.724.642.642,0,0,1-.6.7H44.466a.642.642,0,0,1-.6-.7m.973,12.066a.455.455,0,0,1,.453-.494h8.564a.5.5,0,0,1,0,.988H45.292a.455.455,0,0,1-.453-.494m8.845-3.788H58.4V25H53.684Z" transform="translate(0.066 -24.968)" fill="#fff"/>
      </g>
    </g>
  </svg>
  