<svg xmlns="http://www.w3.org/2000/svg" width="16" height="12" viewBox="0 0 16 12">
    <path id="img_bl01" d="M3.036-15.035A5.483,5.483,0,0,0-1.5-12.487,11.515,11.515,0,0,0-2.883-6.452a3.157,3.157,0,0,0,1.017,2.5,3.648,3.648,0,0,0,2.5.894A2.578,2.578,0,0,0,2.9-4.038a4.082,4.082,0,0,0,.694-2.414,2.912,2.912,0,0,0-.879-2.19A2.88,2.88,0,0,0,.262-9.313a2.874,2.874,0,0,1,.786-2.414,2.282,2.282,0,0,1,1.988-.626q1.572.089,1.572-1.386T3.036-15.035Zm8.509,0a5.2,5.2,0,0,0-4.439,2.593,12.234,12.234,0,0,0-1.295,5.99,3.32,3.32,0,0,0,.925,2.5,3.315,3.315,0,0,0,2.4.894,2.878,2.878,0,0,0,2.4-.939,3.57,3.57,0,0,0,.74-2.28,3.128,3.128,0,0,0-.925-2.28,2.99,2.99,0,0,0-2.59-.76,2.936,2.936,0,0,1,.832-2.28,2.79,2.79,0,0,1,1.942-.76q1.572.089,1.572-1.386T11.545-15.035Z" transform="translate(2.883 15.055)" fill="#4b4b4b"/>
</svg>
  