<svg xmlns="http://www.w3.org/2000/svg" width="12" height="12" viewBox="0 0 12 12">
    <g id="icon" transform="translate(-42.035 -623.071)">
      <rect id="사각형_3087" data-name="사각형 3087" width="12" height="12" transform="translate(42.035 623.071)" fill="none"/>
      <path id="빼기_11" data-name="빼기 11" d="M-437.636-95.565h0l-3.182-3.182a4.506,4.506,0,0,1,0-6.364,4.471,4.471,0,0,1,3.182-1.318,4.469,4.469,0,0,1,3.182,1.318,4.471,4.471,0,0,1,1.318,3.182,4.469,4.469,0,0,1-1.318,3.182l-3.181,3.182Zm-.043-8.364a2,2,0,0,0-2,2,2,2,0,0,0,2,2,2,2,0,0,0,2-2A2,2,0,0,0-437.679-103.928Z" transform="translate(485.965 730)" fill="#949494"/>
    </g>
</svg>
  