<svg id="calendar" xmlns="http://www.w3.org/2000/svg" width="18" height="18" viewBox="0 0 18 18">
    <g id="icon" transform="translate(-95 -565)">
      <rect id="사각형_3106" data-name="사각형 3106" width="18" height="18" rx="3" transform="translate(95 565)" fill="none"/>
      <g id="사각형_3108" data-name="사각형 3108" transform="translate(95 567)" fill="none" stroke="#121619" stroke-width="1">
        <rect width="18" height="16" rx="1" stroke="none"/>
        <rect x="0.5" y="0.5" width="17" height="15" rx="0.5" fill="none"/>
      </g>
      <g id="사각형_3107" data-name="사각형 3107" transform="translate(95 571)" fill="#fff" stroke="#121619" stroke-width="1">
        <rect width="18" height="1" stroke="none"/>
        <rect x="0.5" y="0.5" width="17" fill="none"/>
      </g>
      <rect id="사각형_3109" data-name="사각형 3109" width="2" height="2" rx="1" transform="translate(99 578)" fill="#121619"/>
      <rect id="사각형_3110" data-name="사각형 3110" width="2" height="2" rx="1" transform="translate(103 578)" fill="#121619"/>
      <rect id="사각형_3111" data-name="사각형 3111" width="2" height="2" rx="1" transform="translate(107 578)" fill="#121619"/>
      <rect id="사각형_3112" data-name="사각형 3112" width="1" height="4" rx="0.5" transform="translate(99 565)" fill="#121619"/>
      <rect id="사각형_3113" data-name="사각형 3113" width="1" height="4" rx="0.5" transform="translate(108 565)" fill="#121619"/>
      <rect id="사각형_3380" data-name="사각형 3380" width="2" height="2" rx="1" transform="translate(99 574)" fill="#121619"/>
      <rect id="사각형_3381" data-name="사각형 3381" width="2" height="2" rx="1" transform="translate(103 574)" fill="#121619"/>
      <rect id="사각형_3382" data-name="사각형 3382" width="2" height="2" rx="1" transform="translate(107 574)" fill="#121619"/>
    </g>
</svg>
  