<svg id="star_empty" xmlns="http://www.w3.org/2000/svg" width="24" height="24" viewBox="0 0 24 24">
    <rect id="사각형_3388" data-name="사각형 3388" width="24" height="24" fill="none"/>
    <g id="다각형_23" data-name="다각형 23" transform="translate(0 1)" fill="none">
      <path d="M12,0l3.6,7.385L24,8.4l-6.175,5.582L19.416,22,12,18.065,4.584,22l1.591-8.015L0,8.4,8.4,7.385Z" stroke="none"/>
      <path d="M 12 4.564537048339844 L 9.720950126647949 9.240079879760742 L 4.59510612487793 9.861129760742188 L 8.357700347900391 13.26249980926514 L 7.365375518798828 18.25971984863281 L 12 15.80038070678711 L 16.63462448120117 18.25971984863281 L 15.64229965209961 13.26249980926514 L 19.40489387512207 9.861129760742188 L 14.27904987335205 9.240079879760742 L 12 4.564537048339844 M 12 0 L 15.60000038146973 7.385499954223633 L 24 8.403249740600586 L 17.82492065429688 13.98550033569336 L 19.41641044616699 22 L 12 18.06451988220215 L 4.583589553833008 22 L 6.175079345703125 13.98550033569336 L 0 8.403249740600586 L 8.399999618530273 7.385499954223633 L 12 0 Z" stroke="none" fill="#121619"/>
    </g>
</svg>
  