<svg id="star_empty" xmlns="http://www.w3.org/2000/svg" width="12" height="12" viewBox="0 0 12 12">
    <rect id="사각형_3388" data-name="사각형 3388" width="12" height="12" fill="none"/>
    <g id="다각형_23" data-name="다각형 23" transform="translate(0 1)" fill="none">
      <path d="M6,0,7.8,3.693,12,4.2,8.912,6.993,9.708,11,6,9.032,2.292,11l.8-4.007L0,4.2l4.2-.509Z" stroke="none"/>
      <path d="M 6 2.282278060913086 L 4.860479831695557 4.620039939880371 L 2.297553062438965 4.930567264556885 L 4.178850173950195 6.631249904632568 L 3.682690620422363 9.129855155944824 L 6 7.900190353393555 L 8.317309379577637 9.129855155944824 L 7.821149826049805 6.631249904632568 L 9.702445983886719 4.930567264556885 L 7.139520168304443 4.620039939880371 L 6 2.282278060913086 M 6 0 L 7.800000190734863 3.692749977111816 L 12 4.201630115509033 L 8.912460327148438 6.99275016784668 L 9.708200454711914 11 L 6 9.032259941101074 L 2.291799545288086 11 L 3.087539672851562 6.99275016784668 L 0 4.201630115509033 L 4.199999809265137 3.692749977111816 L 6 0 Z" stroke="none" fill="#ccc"/>
    </g>
</svg>
  