<svg xmlns="http://www.w3.org/2000/svg" width="16" height="18" viewBox="0 0 16 18">
  <g id="bell" transform="translate(-55 -431)">
    <g id="사각형_3405" data-name="사각형 3405" transform="translate(57 433)" fill="none" stroke="#fd780f" stroke-width="1">
      <path d="M6,0H6a6,6,0,0,1,6,6v7a0,0,0,0,1,0,0H0a0,0,0,0,1,0,0V6A6,6,0,0,1,6,0Z" stroke="none"/>
      <path d="M6,.5H6A5.5,5.5,0,0,1,11.5,6v6.5a0,0,0,0,1,0,0H.5a0,0,0,0,1,0,0V6A5.5,5.5,0,0,1,6,.5Z" fill="none"/>
    </g>
    <rect id="사각형_3406" data-name="사각형 3406" width="16" height="1" rx="0.5" transform="translate(55 445)" fill="#fd780f"/>
    <g id="사각형_3407" data-name="사각형 3407" transform="translate(61 431)" fill="none" stroke="#fd780f" stroke-width="1">
      <path d="M2,0H2A2,2,0,0,1,4,2V3A0,0,0,0,1,4,3H0A0,0,0,0,1,0,3V2A2,2,0,0,1,2,0Z" stroke="none"/>
      <path d="M2,.5H2A1.5,1.5,0,0,1,3.5,2v.5a0,0,0,0,1,0,0H.5a0,0,0,0,1,0,0V2A1.5,1.5,0,0,1,2,.5Z" fill="none"/>
    </g>
    <g id="사각형_3408" data-name="사각형 3408" transform="translate(60 445)" fill="none" stroke="#fd780f" stroke-width="1">
      <path d="M0,0H6A0,0,0,0,1,6,0V1A3,3,0,0,1,3,4H3A3,3,0,0,1,0,1V0A0,0,0,0,1,0,0Z" stroke="none"/>
      <path d="M.5.5h5a0,0,0,0,1,0,0V1A2.5,2.5,0,0,1,3,3.5H3A2.5,2.5,0,0,1,.5,1V.5A0,0,0,0,1,.5.5Z" fill="none"/>
    </g>
  </g>
</svg>
