<svg xmlns="http://www.w3.org/2000/svg" width="20.001" height="17" viewBox="0 0 20.001 17">
  <g id="camera" transform="translate(-1631.999 -163.25)">
    <g id="합치기_18" data-name="합치기 18" transform="translate(1631 164.25)" fill="none">
      <path d="M2.5,16A1.5,1.5,0,0,1,1,14.5V3.5A1.5,1.5,0,0,1,2.5,2H7V.5A1.5,1.5,0,0,1,8.5-1h5A1.5,1.5,0,0,1,15,.5V2h4.5A1.5,1.5,0,0,1,21,3.5v11A1.5,1.5,0,0,1,19.5,16Z" stroke="none"/>
      <path d="M 19.4994010925293 15.00020027160645 C 19.77527046203613 15.00020027160645 19.99970054626465 14.77577018737793 19.99970054626465 14.49989986419678 L 19.99970054626465 3.500100135803223 C 19.99970054626465 3.224230289459229 19.77527046203613 2.999800205230713 19.4994010925293 2.999800205230713 L 14.00030040740967 2.999800205230713 L 14.00030040740967 0.4995002150535583 C 14.00030040740967 0.2241301983594894 13.77587032318115 0.0001002037024591118 13.50000095367432 0.0001002037024591118 L 8.499600410461426 0.0001002037024591118 C 8.224230766296387 0.0001002037024591118 8.000200271606445 0.2241301983594894 8.000200271606445 0.4995002150535583 L 8.000200271606445 2.999800205230713 L 2.499300479888916 2.999800205230713 C 2.223430633544922 2.999800205230713 1.999000549316406 3.224230289459229 1.999000549316406 3.500100135803223 L 1.999000549316406 14.49989986419678 C 1.999000549316406 14.77577018737793 2.223430633544922 15.00020027160645 2.499300479888916 15.00020027160645 L 19.4994010925293 15.00020027160645 M 19.4994010925293 16.00020027160645 L 2.499300479888916 16.00020027160645 C 1.671300530433655 16.00020027160645 0.9990005493164062 15.32880020141602 0.9990005493164062 14.49989986419678 L 0.9990005493164062 3.500100135803223 C 0.9990005493164062 2.671200275421143 1.671300530433655 1.999800205230713 2.499300479888916 1.999800205230713 L 7.000200748443604 1.999800205230713 L 7.000200748443604 0.4995002150535583 C 7.000200748443604 -0.3284997940063477 7.671600341796875 -0.9998998045921326 8.499600410461426 -0.9998998045921326 L 13.50000095367432 -0.9998998045921326 C 14.32800102233887 -0.9998998045921326 15.00030040740967 -0.3284997940063477 15.00030040740967 0.4995002150535583 L 15.00030040740967 1.999800205230713 L 19.4994010925293 1.999800205230713 C 20.32740020751953 1.999800205230713 20.99970054626465 2.671200275421143 20.99970054626465 3.500100135803223 L 20.99970054626465 14.49989986419678 C 20.99970054626465 15.32880020141602 20.32740020751953 16.00020027160645 19.4994010925293 16.00020027160645 Z" stroke="none" fill="#fd780f"/>
    </g>
    <g id="타원_154" data-name="타원 154" transform="translate(1638 169.25)" fill="none" stroke="#fd780f" stroke-width="1">
      <circle cx="4" cy="4" r="4" stroke="none"/>
      <circle cx="4" cy="4" r="3.5" fill="none"/>
    </g>
  </g>
</svg>
