<svg xmlns="http://www.w3.org/2000/svg" width="16.001" height="22" viewBox="0 0 16.001 22">
  <g id="pin" transform="translate(-171.501 -276.668)">
    <g id="합치기_17" data-name="합치기 17" transform="translate(171.501 276.668)" fill="none">
      <path d="M1.622,12.63A7.76,7.76,0,0,1,0,7.875,7.939,7.939,0,0,1,8,0a7.939,7.939,0,0,1,8,7.875,7.758,7.758,0,0,1-1.54,4.646L8,22Z" stroke="none"/>
      <path d="M 8.00068473815918 20.22325897216797 L 13.65855979919434 11.92407035827637 C 14.53686046600342 10.74271106719971 15.00110054016113 9.342560768127441 15.00110054016113 7.875000476837158 C 15.00110054016113 4.084110736846924 11.86046028137207 1.000000715255737 8.000100135803223 1.000000715255737 C 4.140230178833008 1.000000715255737 1.000000238418579 4.084110736846924 1.000000238418579 7.875000476837158 C 1.000000238418579 9.385370254516602 1.489090323448181 10.81839084625244 2.414400339126587 12.01913070678711 L 2.448980331420898 12.06685066223145 L 8.00068473815918 20.22325897216797 M 8.000100135803223 21.99960136413574 L 1.622310280799866 12.62953090667725 C 0.6041202545166016 11.30826091766357 2.700805623589986e-07 9.661080360412598 2.700805623589986e-07 7.875000476837158 C 2.700805623589986e-07 3.526200771331787 3.582000255584717 6.820678777330613e-07 8.000100135803223 6.820678777330613e-07 C 12.41909980773926 6.820678777330613e-07 16.00110054016113 3.526200771331787 16.00110054016113 7.875000476837158 C 16.00110054016113 9.612240791320801 15.4293098449707 11.21837043762207 14.46107006072998 12.52071094512939 L 8.000100135803223 21.99960136413574 Z" stroke="none" fill="#fd780f"/>
    </g>
    <g id="타원_226" data-name="타원 226" transform="translate(175.501 280.668)" fill="none" stroke="#fd780f" stroke-width="1">
      <circle cx="4" cy="4" r="4" stroke="none"/>
      <circle cx="4" cy="4" r="3.5" fill="none"/>
    </g>
  </g>
</svg>
