<svg xmlns="http://www.w3.org/2000/svg" xmlns:xlink="http://www.w3.org/1999/xlink" width="23" height="23" viewBox="0 0 23 23">
  <defs>
    <radialGradient id="radial-gradient" cx="0.5" cy="0.5" r="0.5" gradientUnits="objectBoundingBox">
      <stop offset="0" stop-color="#fff"/>
      <stop offset="0.393" stop-color="#fff"/>
      <stop offset="1" stop-color="#b8b8b8"/>
    </radialGradient>
    <filter id="타원_204" x="0" y="0" width="23" height="23" filterUnits="userSpaceOnUse">
      <feOffset dy="2" input="SourceAlpha"/>
      <feGaussianBlur stdDeviation="1.5" result="blur"/>
      <feFlood flood-opacity="0.361"/>
      <feComposite operator="in" in2="blur"/>
      <feComposite in="SourceGraphic"/>
    </filter>
    <radialGradient id="radial-gradient-3" cx="0.5" cy="0.5" r="0.5" gradientUnits="objectBoundingBox">
      <stop offset="0" stop-color="#fff"/>
      <stop offset="0.531" stop-color="#fff"/>
      <stop offset="1" stop-color="#d5d5d5"/>
    </radialGradient>
    <filter id="타원_178" x="0" y="0" width="23" height="23" filterUnits="userSpaceOnUse">
      <feOffset dy="2" input="SourceAlpha"/>
      <feGaussianBlur stdDeviation="1.5" result="blur-2"/>
      <feFlood flood-opacity="0.361"/>
      <feComposite operator="in" in2="blur-2"/>
      <feComposite in="SourceGraphic"/>
    </filter>
    <filter id="타원_178-2" x="0" y="0" width="23" height="23" filterUnits="userSpaceOnUse">
      <feOffset dx="-2" dy="3" input="SourceAlpha"/>
      <feGaussianBlur stdDeviation="2" result="blur-3"/>
      <feFlood flood-color="#747474" flood-opacity="0.322" result="color"/>
      <feComposite operator="out" in="SourceGraphic" in2="blur-3"/>
      <feComposite operator="in" in="color"/>
      <feComposite operator="in" in2="SourceGraphic"/>
    </filter>
    <clipPath id="clip-path">
      <g transform="matrix(1, 0, 0, 1, 0, 0)" filter="url(#타원_204)">
        <circle id="타원_204-2" data-name="타원 204" cx="7" cy="7" r="7" fill="url(#radial-gradient)"/>
      </g>
    </clipPath>
    <clipPath id="clip-path-2">
      <circle id="타원_195" data-name="타원 195" cx="7" cy="7" r="7" transform="translate(0 0)" fill="url(#radial-gradient)"/>
    </clipPath>
  </defs>
  <g id="golf" transform="translate(-147.5 -362.5)">
    <g data-type="innerShadowGroup">
      <g transform="matrix(1, 0, 0, 1, 147.5, 362.5)" filter="url(#타원_178)">
        <circle id="타원_178-3" data-name="타원 178" cx="7" cy="7" r="7" transform="translate(4.5 2.5)" fill="url(#radial-gradient-3)"/>
      </g>
      <g transform="matrix(1, 0, 0, 1, 147.5, 362.5)" filter="url(#타원_178-2)">
        <circle id="타원_178-4" data-name="타원 178" cx="7" cy="7" r="7" transform="translate(4.5 2.5)" fill="#fff"/>
      </g>
    </g>
    <g id="마스크_그룹_20" data-name="마스크 그룹 20" transform="translate(152 365)" clip-path="url(#clip-path)">
      <g id="마스크_그룹_18" data-name="마스크 그룹 18" transform="translate(6.137 16.862) rotate(-130)" clip-path="url(#clip-path-2)">
        <g id="그룹_3904" data-name="그룹 3904" transform="translate(0.35 8.075)">
          <circle id="타원_180" data-name="타원 180" cx="0.7" cy="0.7" r="0.7" transform="translate(1.05 2.1)" fill="#bcbcbc"/>
          <circle id="타원_181" data-name="타원 181" cx="0.7" cy="0.7" r="0.7" transform="translate(3.5 2.1)" fill="#d9d9d9"/>
          <circle id="타원_182" data-name="타원 182" cx="0.7" cy="0.7" r="0.7" transform="translate(5.95 2.1)" fill="#d9d9d9"/>
          <circle id="타원_183" data-name="타원 183" cx="0.7" cy="0.7" r="0.7" transform="translate(8.4 2.1)" fill="#d9d9d9"/>
          <circle id="타원_184" data-name="타원 184" cx="0.7" cy="0.7" r="0.7" transform="translate(7.35 0)" fill="#d9d9d9"/>
          <circle id="타원_185" data-name="타원 185" cx="0.7" cy="0.7" r="0.7" transform="translate(4.9 0)" fill="#d9d9d9"/>
          <circle id="타원_186" data-name="타원 186" cx="0.7" cy="0.7" r="0.7" transform="translate(9.8 0)" fill="#d9d9d9"/>
          <circle id="타원_187" data-name="타원 187" cx="0.7" cy="0.7" r="0.7" transform="translate(2.45 0)" fill="#d9d9d9"/>
          <circle id="타원_188" data-name="타원 188" cx="0.7" cy="0.7" r="0.7" transform="translate(12.25 0)" fill="#bcbcbc"/>
          <circle id="타원_189" data-name="타원 189" cx="0.7" cy="0.7" r="0.7" transform="translate(0 0)" fill="#bcbcbc"/>
          <circle id="타원_190" data-name="타원 190" cx="0.7" cy="0.7" r="0.7" transform="translate(10.85 2.1)" fill="#bcbcbc"/>
          <circle id="타원_191" data-name="타원 191" cx="0.7" cy="0.7" r="0.7" transform="translate(2.45 4.2)" fill="#bcbcbc"/>
          <circle id="타원_192" data-name="타원 192" cx="0.7" cy="0.7" r="0.7" transform="translate(4.9 4.2)" fill="#bcbcbc"/>
          <circle id="타원_193" data-name="타원 193" cx="0.7" cy="0.7" r="0.7" transform="translate(7.35 4.2)" fill="#bcbcbc"/>
          <circle id="타원_194" data-name="타원 194" cx="0.7" cy="0.7" r="0.7" transform="translate(9.8 4.2)" fill="#bcbcbc"/>
        </g>
      </g>
    </g>
  </g>
</svg>
