<svg xmlns="http://www.w3.org/2000/svg" width="180" height="161.582" viewBox="0 0 180 161.582">
  <g id="graph" transform="translate(-97.5 -603.959)">
    <line id="선_1" data-name="선 1" y2="81" transform="translate(187.5 605.5)" fill="none" stroke="#707070" stroke-width="0.5" opacity="0.27"/>
    <line id="선_2" data-name="선 2" x1="90" y2="17" transform="translate(186.5 669.5)" fill="none" stroke="#707070" stroke-width="0.5" opacity="0.27"/>
    <line id="선_3" data-name="선 3" x2="89" y2="17" transform="translate(98.5 669.5)" fill="none" stroke="#707070" stroke-width="0.5" opacity="0.27"/>
    <line id="선_4" data-name="선 4" y1="78" x2="60" transform="translate(127.5 686.5)" fill="none" stroke="#707070" stroke-width="0.5" opacity="0.27"/>
    <line id="선_5" data-name="선 5" x1="60" y1="78" transform="translate(187.5 686.5)" fill="none" stroke="#707070" stroke-width="0.5" opacity="0.27"/>
    <g id="패스_2" data-name="패스 2" transform="translate(87.5 595)" fill="none">
      <path d="M100,10l14.308,10.241L190,74.418l-29.366,96.122H39.366L10,74.418Z" stroke="none"/>
      <path d="M 99.99998474121094 11.229736328125 L 11.16629028320312 74.81310272216797 L 40.10612487792969 169.54052734375 L 159.89404296875 169.54052734375 L 188.8337097167969 74.81310272216797 L 99.99998474121094 11.229736328125 M 98.54563140869141 8.958999633789062 C 98.54581451416016 8.959136962890625 100 9.999984741210938 100 9.999984741210938 C 98.90914916992188 9.219268798828125 98.54553985595703 8.958938598632812 98.54563140869141 8.958999633789062 Z M 99.99994659423828 10.00001525878906 C 101.9050521850586 11.36361694335938 106.0285415649414 14.31494140625 114.3081130981445 20.24111938476562 C 136.80810546875 36.34564208984375 190 74.41813659667969 190 74.41813659667969 L 160.6341552734375 170.54052734375 L 39.36599731445312 170.54052734375 L 10 74.41813659667969 L 100 9.999984741210938 Z" stroke="none" fill="#ddd"/>
    </g>
    <g id="패스_3" data-name="패스 3" transform="translate(105 610.608)" fill="none" opacity="0.6">
      <path d="M82.5,10,155,61.892l-23.656,77.432H33.656L10,61.892,50.7,32.758Z" stroke="none"/>
      <path d="M 82.49999237060547 11.229736328125 L 11.16629028320312 62.28736877441406 L 34.39605712890625 138.3243103027344 L 130.6040649414062 138.3243103027344 L 153.8337097167969 62.28736877441406 L 82.49999237060547 11.229736328125 M 82.5 9.999984741210938 L 155 61.89238739013672 L 131.3441772460938 139.3243103027344 L 33.65594482421875 139.3243103027344 L 10 61.89238739013672 C 10 61.89238739013672 32.57911682128906 45.73120880126953 50.70411682128906 32.75811004638672 C 68.82911682128906 19.78500366210938 82.5 9.999984741210938 82.5 9.999984741210938 Z" stroke="none" fill="#ddd"/>
    </g>
    <g id="패스_4" data-name="패스 4" transform="translate(122 625.77)" fill="none" opacity="0.4">
      <path d="M65.5,10,121,49.725,102.891,109H28.109L10,49.725Z" stroke="none"/>
      <path d="M 65.5 11.22974395751953 L 11.16629791259766 50.11948394775391 L 28.84915161132812 107.9999847412109 L 102.1509399414062 107.9999847412109 L 119.8337020874023 50.11948394775391 L 65.5 11.22974395751953 M 65.5 9.999984741210938 L 121 49.72451019287109 L 102.8910598754883 108.9999847412109 L 28.10903167724609 108.9999847412109 L 10 49.72451019287109 L 65.5 9.999984741210938 Z" stroke="none" fill="#ddd"/>
    </g>
    <g id="패스_5" data-name="패스 5" transform="translate(140.197 642)" fill="none" opacity="0.2">
      <path d="M47.3,10l37.3,26.7L72.435,76.54H22.172L10,36.7Z" stroke="none"/>
      <path d="M 47.30300521850586 11.22974395751953 L 11.16629028320312 37.09486389160156 L 22.91167449951172 75.54048156738281 L 71.69438934326172 75.54048156738281 L 83.43971252441406 37.0948600769043 L 47.30300521850586 11.22974395751953 M 47.30300521850586 9.999984741210938 L 84.60600280761719 36.69988250732422 L 72.43451690673828 76.54048156738281 L 22.17155456542969 76.54048156738281 L 9.999992370605469 36.69988250732422 L 47.30300521850586 9.999984741210938 Z" stroke="none" fill="#5e5e5e"/>
    </g>
  </g>
</svg>
  