<svg xmlns="http://www.w3.org/2000/svg" width="25" height="24.5" viewBox="0 0 25 24.5">
  <g id="icon_customer" transform="translate(-368.5 -229.5)">
    <path id="패스_5746" data-name="패스 5746" d="M0,0H12a12,12,0,0,1,0,24H0" transform="translate(369 254) rotate(-90)" fill="none" stroke="#fff" stroke-width="1"/>
    <g id="사각형_3177" data-name="사각형 3177" transform="translate(368.5 244)" fill="none" stroke="#fff" stroke-width="1">
      <path d="M0,0H2A5,5,0,0,1,7,5V5a5,5,0,0,1-5,5H0a0,0,0,0,1,0,0V0A0,0,0,0,1,0,0Z" stroke="none"/>
      <path d="M.5.5H2A4.5,4.5,0,0,1,6.5,5V5A4.5,4.5,0,0,1,2,9.5H.5a0,0,0,0,1,0,0V.5A0,0,0,0,1,.5.5Z" fill="none"/>
    </g>
    <g id="사각형_3178" data-name="사각형 3178" transform="translate(386.5 244)" fill="none" stroke="#fff" stroke-width="1">
      <path d="M5,0H7A0,0,0,0,1,7,0V10a0,0,0,0,1,0,0H5A5,5,0,0,1,0,5V5A5,5,0,0,1,5,0Z" stroke="none"/>
      <path d="M5,.5H6.5a0,0,0,0,1,0,0v9a0,0,0,0,1,0,0H5A4.5,4.5,0,0,1,.5,5V5A4.5,4.5,0,0,1,5,.5Z" fill="none"/>
    </g>
  </g>
</svg>
