<svg xmlns="http://www.w3.org/2000/svg" width="28" height="28" viewBox="0 0 28 28">
    <path id="trophy_24dp_FFFFFF_FILL0_wght100_GRAD0_opsz24" d="M180.182-760v-1.273h5.182v-7.182a8.293,8.293,0,0,1-4.273-2.045,8.109,8.109,0,0,1-2.455-4.045,7.939,7.939,0,0,1-4.682-2.182A6.042,6.042,0,0,1,172-781.273v-1.818a1.219,1.219,0,0,1,.386-.886,1.219,1.219,0,0,1,.886-.386h5.182V-788h15.091v3.636h5.182a1.219,1.219,0,0,1,.886.386,1.219,1.219,0,0,1,.386.886v1.818a6.042,6.042,0,0,1-1.955,4.545,7.939,7.939,0,0,1-4.682,2.182,8.109,8.109,0,0,1-2.455,4.045,8.293,8.293,0,0,1-4.273,2.045v7.182h5.182V-760Zm-1.727-15.909v-7.182h-5.182v1.818a5.081,5.081,0,0,0,1.5,3.7A5.474,5.474,0,0,0,178.455-775.909ZM186-769.727a5.967,5.967,0,0,0,4.386-1.8,5.967,5.967,0,0,0,1.8-4.386v-10.818H179.818v10.818a5.967,5.967,0,0,0,1.8,4.386A5.967,5.967,0,0,0,186-769.727Zm7.545-6.182a5.474,5.474,0,0,0,3.682-1.659,5.081,5.081,0,0,0,1.5-3.7v-1.818h-5.182ZM186-778.227Z" transform="translate(-172 788)" fill="#fff"/>
</svg>
  