<svg xmlns="http://www.w3.org/2000/svg" xmlns:xlink="http://www.w3.org/1999/xlink" width="64" height="12" viewBox="0 0 64 12">
  <defs>
    <clipPath id="clip-path">
      <rect id="사각형_3611" data-name="사각형 3611" width="64" height="12" fill="none"/>
    </clipPath>
  </defs>
  <g id="그룹_4092" data-name="그룹 4092" clip-path="url(#clip-path)">
    <path id="패스_6272" data-name="패스 6272" d="M31.191,2.171,29.521.124A.076.076,0,0,1,29.58,0H43.553A.148.148,0,0,1,43.7.177l-.1.506a.3.3,0,0,1-.061.13l-8.014,9.828a.074.074,0,0,0,.058.121h5.374a.3.3,0,0,0,.233-.11l.774-.935a.076.076,0,0,1,.117,0l1.656,2.029a.076.076,0,0,1-.059.123H29.7a.148.148,0,0,1-.145-.177l.1-.491a.3.3,0,0,1,.061-.129l8.056-9.844a.074.074,0,0,0-.058-.121H32.374a.3.3,0,0,0-.234.11l-.83.954a.076.076,0,0,1-.118,0M6.436,7.946l-4.22.279V3.482H5.486v-1.9H0v8.634l6.436-.4ZM4.273,6.436H6.647v4.115H8.863V1.319H6.647V4.537H4.273ZM9.5,10.392h9.179V8.546H9.5Zm.264-3.639A5.29,5.29,0,0,0,14.08,4.687a5.3,5.3,0,0,0,4.331,2.066V4.988a3.2,3.2,0,0,1-3.218-2.762V1.372H12.977v.854A3.2,3.2,0,0,1,9.759,4.988Zm9.232-.107h2.057l-.169.664a1.648,1.648,0,0,0-1.358,1.636,1.628,1.628,0,0,0,1.6,1.656h5.425a1.663,1.663,0,0,0,0-3.323H22.9l.156-.633h2.478V5.117H18.991Zm.22-3.52A1.667,1.667,0,0,0,20.865,4.8h2.564a1.688,1.688,0,0,0,0-3.376H20.865a1.674,1.674,0,0,0-1.653,1.7m1.867-.036a.318.318,0,0,1,.288-.348h1.61a.318.318,0,0,1,.288.348.309.309,0,0,1-.288.338h-1.61a.309.309,0,0,1-.288-.338m.467,5.8a.219.219,0,0,1,.218-.237h4.115a.238.238,0,0,1,0,.475H21.764a.219.219,0,0,1-.218-.237m4.25-1.82h2.268V1.319H25.8ZM45.1,3.271h1.319V3.8c0,2.434-.309,3.666-1.424,4.411v2.033a4.363,4.363,0,0,0,2.316-2.147,4.382,4.382,0,0,0,2.326,2.147V8.209c-1.116-.745-1.424-1.977-1.424-4.411V3.271h1.319V1.583H45.1Zm3.64,3.165h1.372v4.115h1.741V1.319H50.116V4.748H48.744Zm3.534,4.115h1.794V1.319H52.278Zm2.427-.158h9.179V8.652H54.705Zm.369-7.333H63.62V1.477H55.074ZM63.62,5.592H57.29v-.58h6.33V3.482H55.074v3.8H63.62Z" fill="#c4c4c4"/>
  </g>
</svg>
